<svg width="26" height="24" viewBox="0 0 26 24" fill="none" xmlns="http://www.w3.org/2000/svg">
<path fill-rule="evenodd" clip-rule="evenodd" d="M12.0046 18.9825H2.50096C2.22085 18.9825 2.00076 18.7625 2.00076 18.4825V5.5025C2.00076 5.2225 2.22085 5.0025 2.50096 5.0025H4.4417C3.89149 5.5525 3.30126 6.1425 3.30126 6.1425C2.8711 6.5725 2.8711 7.2725 3.30126 7.7025C3.73143 8.1325 4.43169 8.1325 4.86186 7.7025L7.66293 4.9125C7.91302 4.6525 8.00306 4.3225 7.96304 4.0025C8.00306 3.6825 7.91302 3.3525 7.66293 3.1125L4.86186 0.3225C4.43169 -0.1075 3.73143 -0.1075 3.30126 0.3225C2.8711 0.7525 2.8711 1.4525 3.30126 1.8825C3.30126 1.8825 3.88148 2.4625 4.43169 3.0125H2.49095C1.12043 3.0025 0 4.1225 0 5.5025V18.4825C0 19.8625 1.12043 20.9825 2.50096 20.9825H12.0046C12.5548 20.9825 13.005 20.5325 13.005 19.9825C13.005 19.4325 12.5548 18.9825 12.0046 18.9825ZM13.005 5.0025C9.6937 5.0025 7.00268 7.6825 7.00268 10.9925C7.00268 14.3025 9.6937 16.9825 13.005 16.9825C16.3162 16.9825 19.0073 14.3025 19.0073 10.9925C19.0073 7.6825 16.3162 5.0025 13.005 5.0025ZM13.005 14.9925C10.7941 14.9925 9.00344 13.2025 9.00344 11.0025C9.00344 8.8025 10.7941 7.0125 13.005 7.0125C15.2158 7.0125 17.0065 8.7925 17.0065 10.9925C17.0065 13.1925 15.2158 14.9925 13.005 14.9925ZM23.509 3.0025H20.5078C20.3678 3.0025 20.2377 2.9425 20.1477 2.8525L18.267 0.7325C17.8168 0.2825 17.1966 0.0125 16.5063 0.0125H10.0038C9.45361 0.0125 9.00344 0.4625 9.00344 1.0125C9.00344 1.5625 9.45361 2.0125 10.0038 2.0125H16.5063C16.6464 2.0125 16.7764 2.0725 16.8664 2.1625L18.7472 4.2825C19.1973 4.7325 19.8176 5.0025 20.5078 5.0025H23.509C23.7891 5.0025 24.0092 5.2225 24.0092 5.5025V18.4825C24.0092 18.7625 23.7891 18.9825 23.509 18.9825L21.5582 18.9925C22.1184 18.4325 22.6987 17.8525 22.6987 17.8525C23.1288 17.4225 23.1288 16.7225 22.6987 16.2925C22.2685 15.8625 21.5682 15.8625 21.1381 16.2925L18.337 19.0825C18.0869 19.3325 17.9969 19.6625 18.0369 19.9825C17.9969 20.3025 18.0869 20.6325 18.337 20.8825L21.1381 23.6725C21.5682 24.1025 22.2685 24.1025 22.6987 23.6725C23.1288 23.2425 23.1288 22.5425 22.6987 22.1125C22.6987 22.1125 22.1184 21.5325 21.5582 20.9825H23.499C24.8795 20.9825 25.9999 19.8625 25.9999 18.4825V5.5025C26.0099 4.1225 24.8895 3.0025 23.509 3.0025ZM22.0084 8.0025C22.0084 7.4525 21.5582 7.0025 21.008 7.0025C20.4578 7.0025 20.0076 7.4525 20.0076 8.0025C20.0076 8.5525 20.4578 9.0025 21.008 9.0025C21.5582 9.0025 22.0084 8.5525 22.0084 8.0025Z" fill="white"/>
</svg>
