<svg width="34" height="23" viewBox="0 0 34 23" fill="none" xmlns="http://www.w3.org/2000/svg">
<path fill-rule="evenodd" clip-rule="evenodd" d="M8.09848 12.9403L8.13684 13.0439C8.59717 12.5824 9.09586 12.168 9.62333 11.7819L9.58496 11.6971C9.16299 11.019 8.5684 10.454 7.86831 10.0584C8.18479 9.60635 8.36701 9.0601 8.36701 8.47619C8.36701 6.9128 7.08191 5.65079 5.48994 5.65079C3.89796 5.65079 2.61287 6.9128 2.61287 8.47619C2.61287 9.0601 2.79508 9.60635 3.11156 10.0584C1.67303 10.8778 0.694824 12.3847 0.694824 14.127C0.694824 14.645 1.12638 15.0688 1.65385 15.0688C2.18131 15.0688 2.61287 14.645 2.61287 14.127C2.61287 12.5636 3.89796 11.3016 5.48994 11.3016C6.65035 11.3016 7.64774 11.9703 8.09848 12.9403ZM5.48994 9.41799C4.96247 9.41799 4.53091 8.99418 4.53091 8.47619C4.53091 7.9582 4.96247 7.53439 5.48994 7.53439C6.0174 7.53439 6.44896 7.9582 6.44896 8.47619C6.44896 8.99418 6.0174 9.41799 5.48994 9.41799ZM20.8151 12.0079C22.5605 10.8213 23.7114 8.84349 23.7114 6.59259C23.7114 2.94783 20.7096 0 16.9982 0C13.2868 0 10.2851 2.94783 10.2851 6.59259C10.2851 8.84349 11.4359 10.8213 13.1813 12.0079C9.24931 13.5148 6.44896 17.2632 6.44896 21.6614C6.44896 22.1794 6.88052 22.6032 7.40798 22.6032C7.93545 22.6032 8.36701 22.1794 8.36701 21.6614C8.36701 16.9806 12.2319 13.1852 16.9982 13.1852C21.7646 13.1852 25.6294 16.9806 25.6294 21.6614C25.6294 22.1794 26.061 22.6032 26.5884 22.6032C27.1159 22.6032 27.5475 22.1794 27.5475 21.6614C27.5475 17.2632 24.7471 13.5148 20.8151 12.0079ZM16.9982 11.3016C14.3513 11.3016 12.2031 9.19196 12.2031 6.59259C12.2031 3.99323 14.3513 1.8836 16.9982 1.8836C19.6451 1.8836 21.7933 3.99323 21.7933 6.59259C21.7933 9.19196 19.6451 11.3016 16.9982 11.3016ZM30.8849 10.0584C31.2013 9.60635 31.3835 9.0601 31.3835 8.47619C31.3835 6.9128 30.0985 5.65079 28.5065 5.65079C26.9145 5.65079 25.6294 6.9128 25.6294 8.47619C25.6294 9.0601 25.8116 9.60635 26.1281 10.0584C25.428 10.454 24.8334 11.019 24.4115 11.6971L24.3731 11.7819C24.9006 12.168 25.3992 12.5824 25.8596 13.0439L25.8979 12.9403C26.3487 11.9703 27.3461 11.3016 28.5065 11.3016C30.0985 11.3016 31.3835 12.5636 31.3835 14.127C31.3835 14.645 31.8151 15.0688 32.3426 15.0688C32.87 15.0688 33.3016 14.645 33.3016 14.127C33.3016 12.3847 32.3234 10.8778 30.8849 10.0584ZM28.5065 9.41799C27.979 9.41799 27.5475 8.99418 27.5475 8.47619C27.5475 7.9582 27.979 7.53439 28.5065 7.53439C29.0339 7.53439 29.4655 7.9582 29.4655 8.47619C29.4655 8.99418 29.0339 9.41799 28.5065 9.41799Z" fill="white"/>
</svg>
