<svg width="13" height="13" viewBox="0 0 13 13" fill="none" xmlns="http://www.w3.org/2000/svg">
<path fill-rule="evenodd" clip-rule="evenodd" d="M0 2.16667V4.33333L4.33333 2.16667V0L0 2.16667ZM0 6.5V8.66667L4.33333 6.5V4.33333L0 6.5ZM0 10.8333V13L4.33333 10.8333V8.66667L0 10.8333ZM8.66667 0L4.33333 2.16667V4.33333L8.66667 2.16667V0ZM4.33333 6.5V8.66667L8.66667 6.5V4.33333L4.33333 6.5ZM4.33333 13L8.66667 10.8333V8.66667L4.33333 10.8333V13ZM13 2.16667V0L8.66667 2.16667V4.33333L13 2.16667ZM13 6.5V4.33333L8.66667 6.5V8.66667L13 6.5ZM13 10.8333V8.66667L8.66667 10.8333V13L13 10.8333Z" fill="white"/>
</svg>
