<svg width="28" height="20" viewBox="0 0 28 20" fill="none" xmlns="http://www.w3.org/2000/svg">
<path fill-rule="evenodd" clip-rule="evenodd" d="M8.67403 6.8813C8.41348 6.65201 8.00702 6.65201 7.74647 6.8813C7.61098 6.99594 7.54845 7.14185 7.54845 7.29818V12.3946C7.54845 12.5405 7.61098 12.6968 7.73604 12.8114C7.9966 13.0407 8.40306 13.0407 8.66361 12.8114L11.5193 10.258C11.7798 10.0288 11.7798 9.65356 11.5193 9.42428L8.67403 6.8813ZM25.2764 0.461308C25.2764 0.461308 24.5781 0.450886 23.192 1.50351L18.9189 4.60929C18.4187 2.24348 16.3238 0.461308 13.8121 0.461308H5.47446C2.59797 0.461308 0.263428 2.79585 0.263428 5.67234V14.01C0.263428 16.8865 2.59797 19.221 5.47446 19.221H13.8121C16.3342 19.221 18.4499 17.418 18.9189 15.0313L23.192 18.1788C24.651 19.2419 25.2764 19.221 25.2764 19.221C27.3712 19.221 27.3608 17.1366 27.3608 17.1366V2.54572C27.3608 2.54572 27.3608 0.461308 25.2764 0.461308ZM16.9387 14.01C16.9387 15.74 15.5422 17.1366 13.8121 17.1366H5.47446C3.7444 17.1366 2.34784 15.74 2.34784 14.01V5.67234C2.34784 3.94228 3.7444 2.54572 5.47446 2.54572H13.8121C15.5422 2.54572 16.9387 3.94228 16.9387 5.67234V14.01ZM25.2764 17.1366L19.0231 12.9678V6.71454L25.2764 2.54572V17.1366Z" fill="white"/>
</svg>
