<svg width="21" height="28" viewBox="0 0 21 28" fill="none" xmlns="http://www.w3.org/2000/svg">
<path fill-rule="evenodd" clip-rule="evenodd" d="M10.2042 18.4616C13.3204 18.4616 15.8495 15.9325 15.8495 12.8164V6.04201C15.8495 2.92582 13.3204 0.396729 10.2042 0.396729C7.08804 0.396729 4.55895 2.92582 4.55895 6.04201V12.8164C4.55895 15.9325 7.08804 18.4616 10.2042 18.4616ZM6.81706 6.04201C6.81706 4.16778 8.33 2.65484 10.2042 2.65484C12.0785 2.65484 13.5914 4.16778 13.5914 6.04201V12.8164C13.5914 14.6906 12.0785 16.2035 10.2042 16.2035C8.33 16.2035 6.81706 14.6906 6.81706 12.8164V6.04201ZM20.3657 12.8164C20.3657 12.1954 19.8577 11.6873 19.2367 11.6873C18.6157 11.6873 18.1076 12.1954 18.1076 12.8164C18.1076 17.1858 14.5737 20.7197 10.2042 20.7197C5.83478 20.7197 2.30084 17.1858 2.30084 12.8164C2.30084 12.1954 1.79276 11.6873 1.17178 11.6873C0.5508 11.6873 0.0427246 12.1954 0.0427246 12.8164C0.0427246 18.0439 3.98313 22.3456 9.06389 22.9101L9.07518 25.236H4.55895C3.93797 25.236 3.42989 25.744 3.42989 26.365C3.42989 26.986 3.93797 27.4941 4.55895 27.4941H15.8495C16.4705 27.4941 16.9786 26.986 16.9786 26.365C16.9786 25.744 16.4705 25.236 15.8495 25.236H11.3333V22.9214C16.414 22.3569 20.3657 18.0439 20.3657 12.8164Z" fill="white"/>
</svg>
