<svg width="12" height="7" viewBox="0 0 12 7" fill="none" xmlns="http://www.w3.org/2000/svg">
<path fill-rule="evenodd" clip-rule="evenodd" d="M9.5175 6.49039C9.96212 6.93501 10.6995 6.93501 11.1442 6.49039C11.5888 6.04577 11.5888 5.3192 11.1442 4.86374L6.93654 0.666966C6.70881 0.439234 6.41601 0.330791 6.11237 0.330791C6.09068 0.330791 6.07983 0.319946 6.05814 0.319946C6.03645 0.319946 6.02561 0.330791 6.00392 0.330791C5.71112 0.330791 5.40748 0.439234 5.17975 0.666966L0.972136 4.86374C0.527517 5.30835 0.527517 6.03493 0.972136 6.49039C1.41676 6.93501 2.15417 6.93501 2.59879 6.49039L6.05814 3.04188L9.5175 6.49039Z" fill="white"/>
</svg>
