<svg width="23" height="21" viewBox="0 0 23 21" fill="none" xmlns="http://www.w3.org/2000/svg">
<path fill-rule="evenodd" clip-rule="evenodd" d="M18.2503 0.314945H4.82336C2.50721 0.314945 0.627441 2.19472 0.627441 4.51086V12.0635C0.627441 14.3797 2.50721 16.2594 4.82336 16.2594H10.6976V18.777H5.66254C5.20099 18.777 4.82336 19.1546 4.82336 19.6162C4.82336 20.0777 5.20099 20.4553 5.66254 20.4553H17.4111C17.8727 20.4553 18.2503 20.0777 18.2503 19.6162C18.2503 19.1546 17.8727 18.777 17.4111 18.777H12.376V16.2594H18.2503C20.5664 16.2594 22.4462 14.3797 22.4462 12.0635V4.51086C22.4462 2.19472 20.5664 0.314945 18.2503 0.314945ZM20.7678 12.0635C20.7678 13.4566 19.6433 14.5811 18.2503 14.5811H4.82336C3.43031 14.5811 2.30581 13.4566 2.30581 12.0635V4.51086C2.30581 3.11782 3.43031 1.99331 4.82336 1.99331H18.2503C19.6433 1.99331 20.7678 3.11782 20.7678 4.51086V12.0635ZM10.983 5.5011C10.7228 5.28291 10.3032 5.28291 10.0515 5.5011C9.92559 5.61019 9.85846 5.75285 9.85846 5.88712V10.6537C9.85846 10.7963 9.92559 10.939 10.0515 11.0397C10.3116 11.2579 10.7312 11.2579 10.983 11.0397L13.853 8.65643C14.1131 8.43824 14.1131 8.09418 13.853 7.88438L10.983 5.5011Z" fill="white"/>
</svg>
