<svg width="26" height="27" viewBox="0 0 26 27" fill="none" xmlns="http://www.w3.org/2000/svg">
<path d="M13.8479 26.0052H12.1625C11.9024 26.0051 11.6466 25.939 11.4191 25.813C11.1916 25.6869 10.9999 25.5052 10.8619 25.2847C10.7397 25.0922 9.9932 23.8411 9.61344 23.0998L8.26611 22.5458C7.44418 22.8059 5.96419 23.1753 5.83673 23.2065C5.58259 23.2649 5.31777 23.2579 5.06709 23.186C4.81642 23.1141 4.5881 22.9798 4.40356 22.7955L3.20968 21.6016C3.02522 21.4172 2.89071 21.1889 2.81882 20.9382C2.74693 20.6875 2.74001 20.4226 2.79872 20.1685C2.85074 19.9448 3.20448 18.5324 3.45938 17.7391L2.90536 16.397C2.12505 16.0016 0.82453 15.2135 0.720488 15.1485C0.500036 15.0105 0.318263 14.8188 0.192234 14.5913C0.0662062 14.3638 5.77397e-05 14.108 0 13.8479L0 12.1573C5.77397e-05 11.8972 0.0662062 11.6414 0.192234 11.4139C0.318263 11.1864 0.500036 10.9947 0.720488 10.8567C0.912965 10.7345 2.16407 9.98799 2.90536 9.60824L3.45938 8.26611C3.19928 7.44418 2.82993 5.96419 2.79872 5.83673C2.74026 5.58259 2.7473 5.31777 2.81918 5.06709C2.89106 4.81642 3.02543 4.5881 3.20968 4.40356L4.40356 3.20968C4.58796 3.02522 4.81627 2.89071 5.06699 2.81882C5.31771 2.74693 5.5826 2.74001 5.83673 2.79872C6.06042 2.85074 7.47279 3.20448 8.26611 3.45938L9.60824 2.90536C10.0036 2.12505 10.7917 0.82453 10.8567 0.720488C10.9947 0.500036 11.1864 0.318263 11.4139 0.192234C11.6414 0.0662062 11.8972 5.77397e-05 12.1573 0H13.8427C14.1028 5.77397e-05 14.3586 0.0662062 14.5861 0.192234C14.8136 0.318263 15.0053 0.500036 15.1433 0.720488C15.2655 0.912965 16.012 2.16407 16.3918 2.90536L17.7339 3.45938C18.5558 3.19928 20.0358 2.82993 20.1633 2.79872C20.4174 2.74026 20.6822 2.7473 20.9329 2.81918C21.1836 2.89106 21.4119 3.02543 21.5964 3.20968L22.7903 4.40356C22.9748 4.58796 23.1093 4.81627 23.1812 5.06699C23.2531 5.31771 23.26 5.5826 23.2013 5.83673C23.1493 6.06042 22.7955 7.47279 22.5406 8.26611L23.0946 9.60824C23.8749 10.0036 25.1755 10.7917 25.2795 10.8567C25.5 10.9947 25.6817 11.1864 25.8078 11.4139C25.9338 11.6414 25.9999 11.8972 26 12.1573V13.8427C25.9999 14.1028 25.9338 14.3586 25.8078 14.5861C25.6817 14.8136 25.5 15.0053 25.2795 15.1433C25.087 15.2655 23.8359 16.012 23.0946 16.3918L22.551 17.7391C22.8111 18.561 23.1805 20.041 23.2117 20.1685C23.2701 20.4226 23.2631 20.6874 23.1912 20.9381C23.1193 21.1888 22.985 21.4171 22.8007 21.6016L21.6068 22.7955C21.4223 22.9798 21.194 23.1141 20.9433 23.186C20.6926 23.2579 20.4278 23.2649 20.1737 23.2065C19.95 23.1545 18.5376 22.8007 17.7443 22.5458L16.4022 23.0998C16.0068 23.8802 15.2187 25.1807 15.1537 25.2847C15.0152 25.5059 14.8227 25.6882 14.5942 25.8142C14.3657 25.9403 14.1089 26.006 13.8479 26.0052V26.0052ZM8.30512 21.0008L10.6643 21.9814L10.7813 22.2415C11.0206 22.7617 11.8842 24.2235 12.0818 24.5226C12.0909 24.5372 12.1035 24.5492 12.1186 24.5574C12.1336 24.5656 12.1505 24.5697 12.1677 24.5694H13.8531C13.8703 24.5697 13.8872 24.5656 13.9023 24.5574C13.9173 24.5492 13.93 24.5372 13.939 24.5226C14.0924 24.2781 14.9794 22.7955 15.2395 22.2415L15.3565 21.9814L17.7235 21.0008L17.9836 21.097C18.522 21.2947 20.1633 21.7161 20.5092 21.7993C20.5253 21.8041 20.5424 21.8041 20.5585 21.7995C20.5746 21.7949 20.5891 21.7858 20.6002 21.7733L21.7941 20.5794C21.8064 20.5681 21.8153 20.5536 21.8199 20.5376C21.8245 20.5215 21.8246 20.5045 21.8201 20.4884C21.7551 20.2101 21.3337 18.5324 21.1178 17.9628L21.0216 17.7027L21.997 15.3409L22.2571 15.2239C22.7773 14.9846 24.2391 14.121 24.5382 13.9234C24.5528 13.9143 24.5648 13.9017 24.573 13.8866C24.5812 13.8716 24.5853 13.8547 24.585 13.8375V12.1521C24.5853 12.1349 24.5812 12.118 24.573 12.1029C24.5648 12.0879 24.5528 12.0752 24.5382 12.0662V12.0662C24.2937 11.9128 22.8111 11.0258 22.2571 10.7657L21.997 10.6487L21.0164 8.28171L21.1126 8.02161C21.3103 7.48319 21.7317 5.84194 21.8149 5.496C21.8186 5.47986 21.8181 5.46307 21.8135 5.44716C21.809 5.43126 21.8005 5.41675 21.7889 5.40496L20.595 4.21108C20.5837 4.19882 20.5692 4.1899 20.5532 4.18531C20.5371 4.18073 20.5201 4.18064 20.504 4.18507C20.2257 4.2501 18.5532 4.67147 17.9784 4.88735L17.7183 4.98359L15.3461 4.0082L15.2291 3.7481C14.9898 3.22789 14.1262 1.76611 13.9286 1.46699C13.9196 1.45241 13.9069 1.44043 13.8918 1.43222C13.8768 1.42401 13.8599 1.41986 13.8427 1.42017H12.1677C12.1505 1.41986 12.1336 1.42401 12.1186 1.43222C12.1035 1.44043 12.0909 1.45241 12.0818 1.46699C11.9284 1.71148 11.0414 3.19408 10.7813 3.7481L10.6643 4.0082L8.29732 4.9888L8.03721 4.89256C7.4988 4.69488 5.85754 4.27351 5.5116 4.19028C5.49553 4.18554 5.47843 4.18547 5.46231 4.19007C5.44619 4.19468 5.43172 4.20377 5.42057 4.21629L4.22669 5.41016C4.21442 5.42149 4.20551 5.43598 4.20092 5.45203C4.19633 5.46809 4.19625 5.4851 4.20068 5.5012C4.26571 5.77951 4.68707 7.45718 4.90296 8.02681L4.9992 8.28691L4.02381 10.6591L3.76371 10.7761C3.2435 11.0154 1.78171 11.879 1.48259 12.0766C1.46802 12.0856 1.45604 12.0983 1.44783 12.1134C1.43962 12.1284 1.43547 12.1453 1.43577 12.1625V13.8479C1.43547 13.8651 1.43962 13.882 1.44783 13.897C1.45604 13.9121 1.46802 13.9248 1.48259 13.9338C1.72709 14.0872 3.20968 14.9742 3.76371 15.2343L4.02381 15.3513L5.0044 17.7183L4.90816 17.9784C4.71048 18.5168 4.28912 20.1581 4.20588 20.504C4.20225 20.5201 4.20273 20.5369 4.20728 20.5528C4.21182 20.5687 4.22029 20.5833 4.23189 20.595L5.42577 21.7889C5.4371 21.8012 5.45158 21.8101 5.46764 21.8147C5.4837 21.8193 5.50071 21.8194 5.51681 21.8149C5.79512 21.7499 7.46759 21.3285 8.04242 21.1126L8.30512 21.0008ZM13.0052 19.076C11.8035 19.076 10.6287 18.7197 9.62954 18.052C8.63034 17.3844 7.85156 16.4354 7.39168 15.3252C6.9318 14.2149 6.81148 12.9933 7.04592 11.8146C7.28037 10.636 7.85905 9.55335 8.7088 8.7036C9.55855 7.85385 10.6412 7.27516 11.8198 7.04072C12.9985 6.80627 14.2201 6.9266 15.3304 7.38648C16.4406 7.84636 17.3896 8.62514 18.0572 9.62434C18.7249 10.6235 19.0812 11.7983 19.0812 13C19.0785 14.6106 18.4374 16.1545 17.2986 17.2934C16.1597 18.4322 14.6158 19.0733 13.0052 19.076V19.076ZM13.0052 8.36234C12.088 8.36234 11.1913 8.63434 10.4287 9.14393C9.666 9.65352 9.07158 10.3778 8.72057 11.2252C8.36955 12.0727 8.27771 13.0051 8.45666 13.9048C8.6356 14.8044 9.0773 15.6307 9.72588 16.2793C10.3745 16.9279 11.2008 17.3696 12.1004 17.5485C13.0001 17.7275 13.9325 17.6356 14.78 17.2846C15.6274 16.9336 16.3517 16.3392 16.8613 15.5765C17.3709 14.8139 17.6429 13.9172 17.6429 13C17.6415 11.7704 17.1524 10.5916 16.283 9.7222C15.4136 8.85277 14.2348 8.36372 13.0052 8.36234V8.36234Z" fill="white"/>
</svg>
