<svg width="30" height="27" viewBox="0 0 30 27" fill="none" xmlns="http://www.w3.org/2000/svg">
<path fill-rule="evenodd" clip-rule="evenodd" d="M23.667 0.720001H6.24809C3.24333 0.720001 0.804688 3.15865 0.804688 6.17429V15.9942C0.804688 19.0098 3.24333 21.4485 6.24809 21.4485C6.24809 21.4485 6.74888 21.4594 7.79402 22.5154C9.84074 24.5621 11.2996 26.0318 11.2996 26.0318C12.3665 27.0987 14.0866 27.0987 15.1535 26.0318C15.1535 26.0318 16.6559 24.5294 18.6373 22.5372C19.7042 21.4594 20.39 21.4485 20.39 21.4485H23.6561C26.6608 21.4485 29.0995 19.0098 29.0995 15.9942V6.17429C29.1104 3.15865 26.6717 0.720001 23.667 0.720001ZM26.933 16.0051C26.933 17.8123 25.4742 19.282 23.667 19.282H19.3123C19.3123 19.282 18.8115 19.2929 17.7446 20.3707C15.4474 22.6678 13.6185 24.5077 13.6185 24.5077C13.4007 24.7254 13.0632 24.7254 12.8455 24.5077C12.8455 24.5077 10.7443 22.3956 8.42545 20.0767C7.66337 19.3038 6.24809 19.282 6.24809 19.282C4.44088 19.282 2.98205 17.8123 2.98205 16.0051V6.17429C2.98205 4.36708 4.44088 2.89736 6.24809 2.89736H23.667C25.4742 2.89736 26.933 4.36708 26.933 6.17429V16.0051ZM21.4896 7.27386H8.42545C7.82668 7.27386 7.33677 7.76376 7.33677 8.36254C7.33677 8.96131 7.82668 9.45122 8.42545 9.45122H21.4896C22.0884 9.45122 22.5783 8.96131 22.5783 8.36254C22.5783 7.75288 22.0884 7.27386 21.4896 7.27386ZM16.0462 12.7281H8.42545C7.82668 12.7281 7.33677 13.2181 7.33677 13.8168C7.33677 14.4156 7.82668 14.9055 8.42545 14.9055H16.0462C16.645 14.9055 17.1349 14.4156 17.1349 13.8168C17.1349 13.2181 16.645 12.7281 16.0462 12.7281Z" fill="white"/>
</svg>
