<svg width="28" height="28" viewBox="0 0 28 28" fill="none" xmlns="http://www.w3.org/2000/svg">
<path fill-rule="evenodd" clip-rule="evenodd" d="M27.184 1.88534L19.0605 10.1593V12.928C19.0605 15.9015 16.6912 18.3147 13.7718 18.3147C12.9785 18.3147 12.2275 18.1208 11.5506 17.7976L9.99567 19.3813C11.1063 20.06 12.3862 20.4694 13.7718 20.4694C17.8653 20.4694 21.176 17.0973 21.176 12.928C21.176 12.3355 21.652 11.8507 22.2338 11.8507C22.8155 11.8507 23.2915 12.3355 23.2915 12.928C23.2915 17.9161 19.5894 22.0315 14.8296 22.5702V24.7895H19.0605C19.6423 24.7895 20.1183 25.2743 20.1183 25.8669C20.1183 26.4594 19.6423 26.9442 19.0605 26.9442H8.4831C7.90134 26.9442 7.42535 26.4594 7.42535 25.8669C7.42535 25.2743 7.90134 24.7895 8.4831 24.7895H12.7141L12.6929 22.5702C11.1275 22.3871 9.67835 21.8269 8.44079 20.965L1.86163 27.6768C1.43853 28.1077 0.74042 28.1077 0.317323 27.6768C-0.105774 27.2459 -0.105774 26.5348 0.317323 26.1039L6.78013 19.5214C5.20409 17.7868 4.24155 15.4813 4.24155 12.9388C4.24155 12.3463 4.71753 11.8615 5.29929 11.8615C5.88105 11.8615 6.35703 12.3463 6.35703 12.9388C6.35703 14.8888 7.09745 16.6449 8.2927 17.9808L9.78412 16.4617C8.98024 15.5137 8.47252 14.2963 8.47252 12.9388V6.4748C8.47252 3.50135 10.8419 1.08811 13.7612 1.08811C16.6806 1.08811 19.0499 3.50135 19.0499 6.4748V7.02424L25.6291 0.323201C26.0522 -0.107734 26.7503 -0.107734 27.1734 0.323201C27.6071 0.743363 27.6071 1.45441 27.184 1.88534ZM13.7718 16.1708C15.5277 16.1708 16.945 14.7272 16.945 12.9388V12.3247L13.2218 16.117C13.391 16.1385 13.5814 16.1708 13.7718 16.1708ZM16.945 6.46402C16.945 4.67564 15.5277 3.23201 13.7718 3.23201C12.016 3.23201 10.5986 4.67564 10.5986 6.46402V12.928C10.5986 13.6822 10.863 14.3717 11.2967 14.9211L16.945 9.16814V6.46402Z" fill="white"/>
</svg>
