<svg width="27" height="28" viewBox="0 0 27 28" fill="none" xmlns="http://www.w3.org/2000/svg">
<path fill-rule="evenodd" clip-rule="evenodd" d="M24.1445 1.95746L20.1136 1.00636C18.7196 0.678397 17.2499 1.57483 16.8284 3.00695L15.2831 8.19972C14.9913 9.17268 15.2615 10.1456 15.8883 10.7688C16.1908 11.0639 17.3904 12.2883 17.3904 12.2883C17.3904 12.2883 17.747 12.6382 17.1742 13.5674C16.6339 14.4529 15.9315 15.24 15.175 16.0053C14.4185 16.7705 13.6405 17.4702 12.7651 18.0277C11.8466 18.6071 11.5008 18.2464 11.5008 18.2464C11.5008 18.2464 10.3012 17.0329 9.99863 16.7268C9.38265 16.0818 8.42086 15.8194 7.45907 16.1146L2.33672 17.667C0.921047 18.1043 0.0349019 19.591 0.359101 20.9903L1.29928 25.068C1.62348 26.4783 1.82881 27.2873 4.28191 27.1561C9.99863 26.85 15.3263 24.7182 19.5625 20.4328C23.7987 16.1474 25.9168 10.7469 26.2086 4.97474C26.3491 2.50407 25.5386 2.28542 24.1445 1.95746ZM24.1229 5.47761C23.5069 10.3534 21.8103 15.2072 18.1036 18.957C14.3969 22.7067 9.59878 24.423 4.77902 25.0462C3.59029 25.1992 3.41738 24.7291 3.35254 24.4449L2.41236 20.3672C2.34752 20.083 2.52043 19.7878 2.81221 19.7003L7.94537 18.1371C8.11827 18.0824 8.47489 18.0824 8.60457 18.2136C8.73425 18.3448 10.7983 20.4328 10.7983 20.4328C10.7983 20.4328 11.5008 21.1543 12.4734 20.6514C13.9971 19.8643 15.3803 18.7602 16.6447 17.4702C17.9091 16.1802 19.0114 14.7918 19.7894 13.2504C20.2866 12.2665 19.5733 11.5559 19.5733 11.5559C19.5733 11.5559 17.5092 9.46785 17.3796 9.33667C17.2499 9.20548 17.2499 8.85565 17.3039 8.6698L18.8493 3.47703C18.9357 3.19279 19.2275 3.00695 19.5085 3.07254L23.5394 4.02364C23.8095 4.10016 24.2742 4.27508 24.1229 5.47761Z" fill="white"/>
</svg>
