<svg width="78" height="78" viewBox="0 0 78 78" fill="none" xmlns="http://www.w3.org/2000/svg">
<path d="M-0.00012207 25.9971L26.0055 13.0028V0L-0.00012207 13.0028V25.9971Z" fill="#FF9901"/>
<path d="M-0.00012207 51.9942L26.0055 38.9999V25.9971L-0.00012207 38.9999V51.9942Z" fill="#FF9901"/>
<path d="M-0.00012207 78L26.0055 64.9972V51.9943L-0.00012207 64.9972V78Z" fill="#FF9901"/>
<path d="M26.0059 25.9971L52.003 13.0028V0L26.0059 13.0028V25.9971Z" fill="#45AC87"/>
<path d="M26.0059 51.9942L52.003 38.9999V25.9971L26.0059 38.9999V51.9942Z" fill="#45AC87"/>
<path d="M26.0059 78L52.003 64.9972V51.9943L26.0059 64.9972V78Z" fill="#45AC87"/>
<path d="M52.0029 25.9971L78.0001 13.0028V0L52.0029 13.0028V25.9971Z" fill="#0F469A"/>
<path d="M52.0029 51.9942L78.0001 38.9999V25.9971L52.0029 38.9999V51.9942Z" fill="#0F469A"/>
<path d="M52.0029 78L78.0001 64.9972V51.9943L52.0029 64.9972V78Z" fill="#0F469A"/>
</svg>
